HIERARCHY
ROOT mixamorig:Hips
{
  OFFSET 0.000000 0.000000 0.000000
  CHANNELS 6 Xposition Yposition Zposition Xrotation Yrotation Zrotation
  JOINT mixamorig:Spine
  {
    OFFSET 1.153752 24.040563 -4.909010
    CHANNELS 3 Xrotation Yrotation Zrotation
    JOINT mixamorig:Spine2
    {
      OFFSET 1.153752 24.040563 -4.909010
      CHANNELS 3 Xrotation Yrotation Zrotation
      JOINT mixamorig:Neck
      {
        OFFSET 0.000000 4.932851 0.000000
        CHANNELS 3 Xrotation Yrotation Zrotation
        JOINT mixamorig:Head
        {
          OFFSET 0.000000 5.437762 0.000000
          CHANNELS 3 Xrotation Yrotation Zrotation
          End Site
          {
            OFFSET 0.000000 1.631329 0.000000
          }
        }
      }
      JOINT mixamorig:LeftShoulder
      {
        OFFSET 16.168012 6.279607 -4.266810
        CHANNELS 3 Xrotation Yrotation Zrotation
        JOINT mixamorig:LeftArm
        {
          OFFSET 6.545061 -21.632230 2.960170
          CHANNELS 3 Xrotation Yrotation Zrotation
          JOINT mixamorig:LeftForeArm
          {
            OFFSET 1.498368 -23.182161 2.338304
            CHANNELS 3 Xrotation Yrotation Zrotation
            JOINT mixamorig:LeftHand
            {
              OFFSET -1.465154 -3.436964 -0.741780
              CHANNELS 3 Xrotation Yrotation Zrotation
              End Site
              {
                OFFSET -0.439546 -1.031089 -0.222534
              }
            }
          }
        }
      }
      JOINT mixamorig:RightShoulder
      {
        OFFSET -16.168012 6.279607 4.266810
        CHANNELS 3 Xrotation Yrotation Zrotation
        JOINT mixamorig:RightArm
        {
          OFFSET -21.602294 -8.789214 -2.250702
          CHANNELS 3 Xrotation Yrotation Zrotation
          JOINT mixamorig:RightForeArm
          {
            OFFSET -22.892153 1.498261 -8.563673
            CHANNELS 3 Xrotation Yrotation Zrotation
            JOINT mixamorig:RightHand
            {
              OFFSET -1.659101 2.167831 -4.005455
              CHANNELS 3 Xrotation Yrotation Zrotation
              End Site
              {
                OFFSET -0.497730 0.650349 -1.201637
              }
            }
          }
        }
      }
    }
  }
  JOINT mixamorig:LeftUpLeg
  {
    OFFSET 8.955008 -0.525145 1.977289
    CHANNELS 3 Xrotation Yrotation Zrotation
    JOINT mixamorig:LeftLeg
    {
      OFFSET 1.504921 -41.558457 -0.051202
      CHANNELS 3 Xrotation Yrotation Zrotation
      JOINT mixamorig:LeftFoot
      {
        OFFSET -3.448404 -39.156571 14.502048
        CHANNELS 3 Xrotation Yrotation Zrotation
        JOINT mixamorig:LeftToeBase
        {
          OFFSET 3.341826 -2.164793 -7.190124
          CHANNELS 3 Xrotation Yrotation Zrotation
          End Site
          {
            OFFSET 1.002548 -0.649438 -2.157037
          }
        }
      }
    }
  }
  JOINT mixamorig:RightUpLeg
  {
    OFFSET -8.955008 0.525145 -1.977289
    CHANNELS 3 Xrotation Yrotation Zrotation
    JOINT mixamorig:RightLeg
    {
      OFFSET 2.492134 -34.880539 -0.332581
      CHANNELS 3 Xrotation Yrotation Zrotation
      JOINT mixamorig:RightFoot
      {
        OFFSET -0.863658 -42.213506 12.698094
        CHANNELS 3 Xrotation Yrotation Zrotation
        JOINT mixamorig:RightToeBase
        {
          OFFSET -2.361686 -0.997600 -10.601731
          CHANNELS 3 Xrotation Yrotation Zrotation
          End Site
          {
            OFFSET -0.708506 -0.299280 -3.180519
          }
        }
      }
    }
  }
}
MOTION
Frames: 14
Frame Time: 0.083333
0.090412 0.179321 0.114708 7.320691 -0.426969 -0.576491 0.000000 0.000000 0.000000 -11.527940 0.280990 0.648498 5.826264 1.249943 6.904137 5.930427 0.548697 7.066539 4.554793 1.038224 6.932708 3.713175 -0.041163 10.994900 -4.257393 -6.556661 2.263560 0.000000 0.000000 0.000000 -9.116204 -26.885888 72.522661 -49.411584 29.586083 80.746087 -31.429732 -19.441243 -155.212352 0.000000 0.000000 0.000000 -10.476671 0.107959 -2.874725 2.358824 1.195932 5.564467 -12.045363 16.098541 -15.019732 0.000000 0.000000 0.000000 -11.917863 0.044699 3.072783 3.836143 -0.390669 -4.047233 -4.212612 8.071131 1.669717 0.000000 0.000000 0.000000
0.087636 0.183937 0.116399 7.313247 -0.427020 -0.579109 -0.000000 0.000000 0.000000 -11.541881 -0.020280 0.628923 5.872997 1.339814 6.916790 5.987118 0.631665 7.089939 4.470590 1.410990 7.678468 3.839146 -0.124066 11.110485 -4.640406 -6.633909 2.472775 0.000000 0.000000 0.000000 -9.407047 -27.490000 72.978598 -51.067135 28.972109 85.682793 -33.040306 -19.509685 -164.671898 0.000000 0.000000 0.000000 -10.551237 0.101047 -2.876887 2.475550 1.215808 5.597000 -11.975293 15.788334 -14.867140 0.000000 0.000000 0.000000 -12.005998 0.037772 3.056225 3.873531 -0.365453 -3.964114 -4.174604 8.062970 1.607675 0.000000 0.000000 0.000000
0.085363 0.188063 0.117914 7.305812 -0.427071 -0.581725 -0.000000 0.000000 0.000000 -11.555799 -0.321060 0.609137 5.919776 1.429282 6.929314 6.043790 0.714236 7.113307 4.386638 1.784956 8.428128 3.963189 -0.212423 11.222414 -5.032947 -6.696657 2.701801 0.000000 0.000000 0.000000 -9.703573 -28.101979 73.443177 -52.679844 28.264391 90.855535 -34.837885 -19.243484 -146.500040 0.000000 0.000000 0.000000 -10.625802 0.094122 -2.879041 2.592279 1.235693 5.629494 -11.906200 15.476753 -14.714709 0.000000 0.000000 0.000000 -12.094050 0.030811 3.039683 3.910743 -0.340080 -3.880943 -4.136599 8.054658 1.545563 0.000000 0.000000 0.000000
0.083148 0.191283 0.119594 7.298386 -0.427122 -0.584337 -0.000000 0.000000 0.000000 -11.569697 -0.621335 0.589145 5.966606 1.518339 6.941715 6.100448 0.796402 7.136650 4.302982 2.160084 9.181429 4.085076 -0.306179 11.330577 -5.434392 -6.744242 2.950843 0.000000 0.000000 0.000000 -10.005655 -28.721573 73.916799 -54.238466 27.464952 96.274311 -36.789441 -18.591754 -31.239746 0.000000 0.000000 0.000000 -10.700364 0.087183 -2.881189 2.709014 1.255587 5.661951 -11.838078 15.163826 -14.562444 0.000000 0.000000 0.000000 -12.182018 0.023815 3.023156 3.947780 -0.314549 -3.797719 -4.098622 8.046192 1.483386 0.000000 0.000000 0.000000
0.080906 0.193573 0.122159 7.290969 -0.427174 -0.586945 0.000000 0.000000 0.000000 -11.583572 -0.921089 0.568947 6.013477 1.606972 6.953997 6.157080 0.878152 7.159966 4.219674 2.536332 9.938099 4.204573 -0.405268 11.434888 -5.844053 -6.776024 3.220001 0.000000 0.000000 0.000000 -10.313153 -29.348514 74.399892 -55.732718 26.577116 101.950642 -38.849681 -17.504218 165.097086 0.000000 0.000000 0.000000 -10.774926 0.080232 -2.883330 2.825753 1.275490 5.694370 -11.770944 14.849575 -14.410360 0.000000 0.000000 0.000000 -12.269903 0.016786 3.006646 3.984642 -0.288860 -3.714444 -4.060678 8.037573 1.421143 0.000000 0.000000 0.000000
0.078934 0.195313 0.125187 7.283561 -0.427226 -0.589551 0.000000 0.000000 0.000000 -11.597426 -1.220308 0.548548 6.060384 1.695176 6.966162 6.213678 0.959479 7.183259 4.136760 2.913658 10.697865 4.321455 -0.509607 11.535248 -6.261185 -6.791412 3.509379 0.000000 0.000000 0.000000 -10.625913 -29.982525 74.892913 -57.153545 25.605420 107.897349 -40.962050 -15.933770 154.573699 0.000000 0.000000 0.000000 -10.849484 0.073268 -2.885465 2.942495 1.295401 5.726751 -11.704792 14.534018 -14.258461 0.000000 0.000000 0.000000 -12.357703 0.009722 2.990151 4.021327 -0.263015 -3.631116 -4.022744 8.028802 1.358833 0.000000 0.000000 0.000000
0.077375 0.196596 0.127520 7.276162 -0.427278 -0.592153 0.000000 0.000000 0.000000 -11.611259 -1.518976 0.527950 6.107326 1.782942 6.978212 6.270239 1.040377 7.206527 4.054289 3.292017 11.460449 4.435500 -0.619104 11.631575 -6.684983 -6.789853 3.818978 0.000000 0.000000 0.000000 -10.943767 -30.623313 75.396345 -58.493295 24.555486 114.128015 -43.060848 -13.839216 143.925676 0.000000 0.000000 0.000000 -10.924041 0.066291 -2.887593 3.059240 1.315321 5.759093 -11.639624 14.217182 -14.106753 0.000000 0.000000 0.000000 -12.445419 0.002625 2.973673 4.057836 -0.237012 -3.547737 -3.984832 8.019876 1.296457 0.000000 0.000000 0.000000
0.075906 0.197576 0.128959 7.268772 -0.427330 -0.594752 0.000000 0.000000 0.000000 -11.625070 -1.817079 0.507156 6.154317 1.870266 6.990138 6.326775 1.120841 7.229762 3.972307 3.671359 12.225565 4.546489 -0.733648 11.723795 -7.114587 -6.770843 4.148727 0.000000 0.000000 0.000000 -11.266533 -31.270580 75.910708 -59.745819 23.433912 120.656081 -45.074104 -11.188106 133.210826 0.000000 0.000000 0.000000 -10.998594 0.059302 -2.889714 3.175988 1.335249 5.791397 -11.575507 13.899076 -13.955277 0.000000 0.000000 0.000000 -12.533050 -0.004507 2.957211 4.094169 -0.210852 -3.464307 -3.946948 8.010799 1.234015 0.000000 0.000000 0.000000
0.074508 0.198193 0.130318 7.261390 -0.427383 -0.597348 0.000000 0.000000 0.000000 -11.638860 -2.114602 0.486168 6.201343 1.957137 7.001948 6.383272 1.200861 7.252970 3.890860 4.051635 12.992934 4.654212 -0.853120 11.811830 -7.549096 -6.733940 4.498526 0.000000 0.000000 0.000000 -11.594019 -31.924028 76.436559 -60.906514 22.248094 127.493583 -46.926453 -7.959425 122.478342 0.000000 0.000000 0.000000 -11.073145 0.052299 -2.891828 3.292741 1.355184 5.823661 -11.512400 13.579733 -13.804019 0.000000 0.000000 0.000000 -12.620595 -0.011671 2.940766 4.130325 -0.184536 -3.380826 -3.909085 8.001565 1.171508 0.000000 0.000000 0.000000
0.073306 0.198518 0.131784 7.254018 -0.427436 -0.599942 0.000000 0.000000 0.000000 -11.652628 -2.411531 0.464990 6.248400 2.043548 7.013646 6.439721 1.280431 7.276151 3.809995 4.432790 13.762252 4.758463 -0.977382 11.895637 -7.987551 -6.678755 4.868144 0.000000 0.000000 0.000000 -11.926016 -32.583330 76.974484 -61.972357 21.006019 134.649476 -48.541207 -4.146052 111.762790 0.000000 0.000000 0.000000 -11.147692 0.045284 -2.893934 3.409495 1.375127 5.855887 -11.450323 13.259170 -13.652994 0.000000 0.000000 0.000000 -12.708054 -0.018870 2.924339 4.166304 -0.158062 -3.297296 -3.871231 7.992177 1.108935 0.000000 0.000000 0.000000
0.072327 0.198633 0.133079 7.246655 -0.427489 -0.602531 0.000000 0.000000 0.000000 -11.666375 -2.707851 0.443623 6.295485 2.129489 7.025235 6.496121 1.359541 7.299308 3.729759 4.814770 14.533228 4.859045 -1.106288 11.975166 -8.428950 -6.604959 5.257232 0.000000 0.000000 0.000000 -12.262298 -33.248159 77.525112 -62.941795 19.716108 142.127521 -49.840716 0.242835 101.078723 0.000000 0.000000 0.000000 -11.222235 0.038257 -2.896034 3.526252 1.395076 5.888073 -11.389278 12.937422 -13.502213 0.000000 0.000000 0.000000 -12.795427 -0.026101 2.907928 4.202106 -0.131432 -3.213715 -3.833412 7.982636 1.046298 0.000000 0.000000 0.000000
0.071272 0.198726 0.134196 7.239300 -0.427543 -0.605118 -0.000000 0.000000 0.000000 -11.680101 -3.003549 0.422072 6.342608 2.214956 7.036715 6.552478 1.438188 7.322440 3.650193 5.197518 15.305569 4.955770 -1.239681 12.050372 -8.872267 -6.512304 5.665441 0.000000 0.000000 0.000000 -12.602634 -33.918193 78.089121 -63.814629 18.387060 149.923839 -50.744403 5.179254 90.415583 0.000000 0.000000 0.000000 -11.296773 0.031217 -2.898127 3.643011 1.415033 5.920221 -11.329249 12.614514 -13.351674 0.000000 0.000000 0.000000 -12.882712 -0.033365 2.891533 4.237730 -0.104645 -3.130084 -3.795630 7.972939 0.983599 0.000000 0.000000 0.000000
0.070122 0.198793 0.135830 7.231954 -0.427596 -0.607702 -0.000000 0.000000 0.000000 -11.693806 -3.298610 0.400338 6.389762 2.299944 7.048079 6.608786 1.516366 7.345537 3.571342 5.580974 16.078973 5.048458 -1.377388 12.121224 -9.316441 -6.400616 6.092292 0.000000 0.000000 0.000000 -12.946774 -34.593092 78.667226 -64.591910 17.027655 158.024462 -51.163973 10.613622 79.732475 0.000000 0.000000 0.000000 -11.371307 0.024164 -2.900212 3.759770 1.434996 5.952329 -11.270254 12.290467 -13.201391 0.000000 0.000000 0.000000 -12.969910 -0.040663 2.875156 4.273176 -0.077701 -3.046404 -3.757870 7.963087 0.920837 0.000000 0.000000 0.000000
0.069026 0.198805 0.138017 7.224617 -0.427650 -0.610282 -0.000000 0.000000 0.000000 -11.707490 -3.593021 0.378424 6.436941 2.384439 7.059337 6.665034 1.594063 7.368607 3.493247 5.965077 16.853139 5.136939 -1.519229 12.187698 -9.760399 -6.269801 6.537268 0.000000 0.000000 0.000000 -13.294456 -35.272514 79.260196 -65.275769 15.646631 166.403040 -50.995500 16.471367 68.951888 0.000000 0.000000 0.000000 -11.445836 0.017100 -2.902292 3.876532 1.454965 5.984398 -11.212336 11.965301 -13.051395 0.000000 0.000000 0.000000 -13.057021 -0.047993 2.858795 4.308444 -0.050601 -2.962675 -3.720144 7.953078 0.858013 0.000000 0.000000 0.000000
